<svg xmlns="http://www.w3.org/2000/svg" width="46" height="46" viewBox="0 0 46 46">
  <g id="_8-Content_Marketing" data-name="8-Content Marketing" transform="translate(-1 -1)">
    <path id="Path_985" data-name="Path 985" d="M47,5V9H1V5A4,4,0,0,1,5,1H43S47,1,47,5Z" fill="#a4b0c0"/>
    <path id="Path_986" data-name="Path 986" d="M47,9V43a4,4,0,0,1-4,4H5a4,4,0,0,1-4-4V9Z" fill="#f1f2f2"/>
    <rect id="Rectangle_176" data-name="Rectangle 176" width="36" height="14" rx="2" transform="translate(6 14)" fill="#d0d7df"/>
    <path id="Path_987" data-name="Path 987" d="M41.55,22.37a1,1,0,0,1,0,1.41L39.42,25.9,36.6,23.08l2.12-2.13a1,1,0,0,1,1.41,0Z" fill="#49aaee"/>
    <path id="Path_988" data-name="Path 988" d="M39.42,25.9,27.4,37.92l-4.24,1.42,1.42-4.24L36.6,23.08Z" fill="#fed049"/>
    <path id="Path_989" data-name="Path 989" d="M6,4A1,1,0,0,0,6,6H8A1,1,0,0,0,8,4Z" fill="#768ba0"/>
    <path id="Path_990" data-name="Path 990" d="M12,4a1,1,0,0,0,0,2h2a1,1,0,0,0,0-2Z" fill="#768ba0"/>
    <path id="Path_991" data-name="Path 991" d="M42,4H40a1,1,0,0,0,0,2h2a1,1,0,0,0,0-2Z" fill="#768ba0"/>
    <path id="Path_992" data-name="Path 992" d="M6,35H8a1,1,0,0,0,0-2H6a1,1,0,0,0,0,2Z" fill="#d0d7df"/>
    <path id="Path_993" data-name="Path 993" d="M21,34a1,1,0,0,0-1-1H12a1,1,0,0,0,0,2h8A1,1,0,0,0,21,34Z" fill="#d0d7df"/>
    <path id="Path_994" data-name="Path 994" d="M6,40H18a1,1,0,0,0,0-2H6a1,1,0,0,0,0,2Z" fill="#d0d7df"/>
  </g>
</svg>
