<svg xmlns="http://www.w3.org/2000/svg" width="177" height="18" viewBox="0 0 177 18">
    <g fill="none" fill-rule="nonzero">
        <path fill="#B8C2CD" d="M159.23 9.17V.7h3.3v8.492c0 1.716-.616 3.146-1.826 4.312-1.21 1.144-2.728 1.716-4.532 1.716-1.804 0-3.322-.572-4.532-1.738s-1.804-2.596-1.804-4.29V.7h3.278v8.47c0 .858.286 1.584.88 2.178.594.572 1.32.858 2.178.858.88 0 1.606-.286 2.178-.858.594-.594.88-1.32.88-2.178zm17.126 2.816V15h-11.484v-2.53l6.864-8.756h-6.798V.7h11.374v2.53l-6.886 8.756h6.93z"/>
        <path fill="#3E4B5B" d="M8.272.48a7.92 7.92 0 0 1 4.092 1.1c1.232.726 2.156 1.716 2.772 2.97l-3.19 1.188c-.704-1.32-2.09-2.134-3.674-2.134-1.21 0-2.2.418-3.014 1.232C4.466 5.65 4.07 6.64 4.07 7.85c0 1.188.396 2.2 1.166 3.014.77.814 1.738 1.232 2.882 1.232 1.65 0 3.146-.968 3.696-2.464H7.612V6.948h7.92c.022.33.044.572.044.77-.022 2.156-.726 3.938-2.134 5.368-1.408 1.43-3.19 2.134-5.324 2.134-2.09 0-3.872-.704-5.302-2.09C1.386 11.722.66 9.962.66 7.85s.726-3.872 2.178-5.258C4.312 1.184 6.116.48 8.272.48zm17.126 0c2.134 0 3.938.704 5.368 2.112C32.196 4 32.922 5.76 32.922 7.85s-.726 3.85-2.156 5.258c-1.43 1.408-3.234 2.112-5.368 2.112-2.134 0-3.938-.704-5.368-2.112C18.6 11.7 17.896 9.94 17.896 7.85s.726-3.85 2.156-5.258C21.482 1.184 23.264.48 25.398.48zm-2.926 4.356c-.77.814-1.166 1.804-1.166 3.014 0 1.21.396 2.222 1.166 3.036.77.814 1.76 1.21 2.926 1.21 1.166 0 2.156-.396 2.926-1.21.792-.814 1.188-1.826 1.188-3.036s-.396-2.2-1.188-3.014c-.792-.814-1.76-1.232-2.926-1.232-1.166 0-2.134.418-2.926 1.232zM45.23 3.89l-3.234.682c-.176-.638-.924-1.144-1.87-1.144-.968 0-1.694.484-1.694 1.166 0 .77.792 1.078 2.75 1.628l.462.132c1.144.352 1.804.638 2.75 1.276s1.452 1.716 1.452 3.058c0 1.386-.506 2.486-1.496 3.3-.99.814-2.266 1.232-3.85 1.232-1.452 0-2.706-.352-3.762-1.034-1.034-.682-1.716-1.584-2.002-2.706l3.3-.704c.198.858 1.21 1.496 2.464 1.496 1.166 0 2.068-.528 2.068-1.298 0-.506-.506-.924-1.518-1.276l-1.122-.352-1.386-.44c-.33-.132-.748-.33-1.254-.594-.484-.264-.858-.528-1.122-.814-.528-.55-1.012-1.518-1.012-2.64 0-1.298.462-2.354 1.364-3.168C37.42.876 38.608.48 40.06.48c1.298 0 2.42.33 3.366.968.946.638 1.562 1.452 1.804 2.442zM48.408 15V.7h3.278v5.742L56.35.7h4.136l-5.654 6.974L60.904 15h-4.136l-5.082-6.138V15h-3.278zm17.17 0h-3.41L68.174.7h2.706L76.886 15h-3.41l-.968-2.398h-5.94L65.578 15zm3.96-9.636l-1.782 4.334h3.564l-1.782-4.334zm11.34-1.65h-4.356V.7h12.012v3.014h-4.378V15h-3.278V3.714zM91.58 15h-3.41L94.176.7h2.706l6.006 14.3h-3.41l-.968-2.398h-5.94L91.58 15zm3.96-9.636l-1.782 4.334h3.564L95.54 5.364zM104.966.7h3.278v11.286h6.886V15h-10.164V.7zm19.106-.22c2.134 0 3.938.704 5.368 2.112 1.43 1.408 2.156 3.168 2.156 5.258s-.726 3.85-2.156 5.258c-1.43 1.408-3.234 2.112-5.368 2.112-2.134 0-3.938-.704-5.368-2.112-1.43-1.408-2.134-3.168-2.134-5.258s.726-3.85 2.156-5.258c1.43-1.408 3.212-2.112 5.346-2.112zm-2.926 4.356c-.77.814-1.166 1.804-1.166 3.014 0 1.21.396 2.222 1.166 3.036.77.814 1.76 1.21 2.926 1.21 1.166 0 2.156-.396 2.926-1.21.792-.814 1.188-1.826 1.188-3.036s-.396-2.2-1.188-3.014c-.792-.814-1.76-1.232-2.926-1.232-1.166 0-2.134.418-2.926 1.232zM141.506.48a7.92 7.92 0 0 1 4.092 1.1c1.232.726 2.156 1.716 2.772 2.97l-3.19 1.188c-.704-1.32-2.09-2.134-3.674-2.134-1.21 0-2.2.418-3.014 1.232-.792.814-1.188 1.804-1.188 3.014 0 1.188.396 2.2 1.166 3.014.77.814 1.738 1.232 2.882 1.232 1.65 0 3.146-.968 3.696-2.464h-4.202V6.948h7.92c.022.33.044.572.044.77-.022 2.156-.726 3.938-2.134 5.368-1.408 1.43-3.19 2.134-5.324 2.134-2.09 0-3.872-.704-5.302-2.09-1.43-1.408-2.156-3.168-2.156-5.28s.726-3.872 2.178-5.258C137.546 1.184 139.35.48 141.506.48z"/>
        <path fill="#3E4B5B" stroke="#F7F8FA" stroke-width="2" d="M149 14.018c0-1.704 1.293-3.018 2.982-3.018 1.725 0 3.018 1.314 3.018 3.018 0 1.704-1.293 2.982-3.018 2.982-1.689 0-2.982-1.314-2.982-2.982z"/>
    </g>
</svg>
