<svg xmlns="http://www.w3.org/2000/svg" width="162" height="15" viewBox="0 0 162 15">
    <g fill="none" fill-rule="nonzero">
        <path fill="#3574FA" d="M3.82 3.74V14H.86V1h11.52v13H9.4V3.74H3.82zM21.57.8c1.94 0 3.58.64 4.88 1.92C27.75 4 28.41 5.6 28.41 7.5c0 1.9-.66 3.5-1.96 4.78-1.3 1.28-2.94 1.92-4.88 1.92s-3.58-.64-4.88-1.92C15.39 11 14.75 9.4 14.75 7.5c0-1.9.66-3.5 1.96-4.78C18.01 1.44 19.63.8 21.57.8zm-2.66 3.96c-.7.74-1.06 1.64-1.06 2.74 0 1.1.36 2.02 1.06 2.76.7.74 1.6 1.1 2.66 1.1s1.96-.36 2.66-1.1c.72-.74 1.08-1.66 1.08-2.76 0-1.1-.36-2-1.08-2.74-.72-.74-1.6-1.12-2.66-1.12s-1.94.38-2.66 1.12zm14.828 5.06V14h-2.98V1h5.9c1.34 0 2.48.42 3.38 1.26.9.84 1.36 1.88 1.36 3.14 0 1.26-.46 2.3-1.36 3.16-.9.84-2.04 1.26-3.38 1.26h-2.92zm2.92-6.08h-2.92v3.34h2.92c.94 0 1.64-.72 1.64-1.68 0-.94-.7-1.66-1.64-1.66zm10.05 0h-3.96V1h10.92v2.74h-3.98V14h-2.98V3.74zM56.435 14h-3.1l5.46-13h2.46l5.46 13h-3.1l-.88-2.18h-5.4l-.9 2.18zm3.6-8.76l-1.62 3.94h3.24l-1.62-3.94zm8.41 8.76h-.58v-2.74h.58c.54 0 .96-.28 1.24-.82.3-.56.44-1.6.44-3.14V1h9.8v13h-2.98V3.74h-3.84V7.3c0 4.58-1.8 6.7-4.66 6.7z"/>
        <path fill="#FFF" d="M85.78 14h-2.92V1h2.92l4.34 7.7L94.48 1h2.92v13h-2.92V6.52l-3.36 6.1h-1.98L85.78 6.5V14zm18.63-3.72L99.29 1h3.28l3.44 6.38L109.05 1h3.16l-4.16 8.78c-1.38 2.94-3.06 4.22-5.44 4.22h-1.2v-2.74h.96c.82 0 1.5-.32 2.04-.98zm14.148 3.92c-2.7 0-4.62-1.22-5.56-3.22l2.9-1.08c.46.98 1.32 1.46 2.62 1.46 1.38 0 2.28-.58 2.28-1.44 0-.72-.66-1.3-1.46-1.3h-2.4V6.16h2.34c.72 0 1.28-.52 1.28-1.16 0-.8-.82-1.34-2.04-1.34-1.24 0-2.08.48-2.52 1.44l-2.86-1.06c.88-2.02 2.78-3.24 5.42-3.24 1.48 0 2.7.36 3.64 1.08.96.7 1.44 1.6 1.44 2.7 0 1.14-.48 2.06-1.44 2.76 1.12.76 1.68 1.76 1.68 2.98 0 1.12-.5 2.04-1.52 2.78-1 .74-2.26 1.1-3.8 1.1zm7.75-13.2h9.72v2.74h-6.74v2.34h5.66v2.74h-5.66v2.44h6.82V14h-9.8V1zm12.088 0h9.72v2.74h-6.74v2.34h5.66v2.74h-5.66v2.44h6.82V14h-9.8V1zm18.83 13h-6.74V1h6.36c1.2 0 2.2.36 3 1.06.8.7 1.2 1.56 1.2 2.58s-.4 1.88-1.18 2.56c1.14.74 1.7 1.76 1.7 3.04 0 1.06-.42 1.96-1.26 2.68-.82.72-1.86 1.08-3.08 1.08zm-.04-5.36h-3.72v2.62h3.72c.72 0 1.26-.58 1.26-1.32 0-.74-.54-1.3-1.26-1.3zm-.38-4.9h-3.34V6.1h3.34c.58 0 1.04-.4 1.12-.98.02-.04.02-.1.02-.2 0-.7-.48-1.18-1.14-1.18z"/>
    </g>
</svg>
