<svg xmlns="http://www.w3.org/2000/svg" width="17.3" height="17.3" viewBox="0 0 17.3 17.3">
  <g id="settings_1_" data-name="settings (1)" transform="translate(0 -0.001)" opacity="0.3">
    <g id="Group_620" data-name="Group 620" transform="translate(0 0.001)">
      <path id="Path_334" data-name="Path 334" d="M16.415,6.835,15.2,6.629a6.856,6.856,0,0,0-.488-1.178l.716-1a1.065,1.065,0,0,0-.116-1.377L14.235,2a1.061,1.061,0,0,0-.755-.314,1.05,1.05,0,0,0-.618.2l-1,.716a6.785,6.785,0,0,0-1.222-.5l-.2-1.2A1.068,1.068,0,0,0,9.378,0H7.857A1.068,1.068,0,0,0,6.8.894l-.21,1.229a6.688,6.688,0,0,0-1.175.5L4.423,1.9a1.067,1.067,0,0,0-1.377.116L1.966,3.095A1.07,1.07,0,0,0,1.85,4.471l.723,1.016a6.7,6.7,0,0,0-.481,1.182l-1.2.2A1.068,1.068,0,0,0,0,7.926V9.448A1.068,1.068,0,0,0,.893,10.5l1.229.21a6.687,6.687,0,0,0,.5,1.175l-.712.99a1.065,1.065,0,0,0,.116,1.377L3.1,15.331a1.061,1.061,0,0,0,.755.314,1.05,1.05,0,0,0,.618-.2l1.016-.723a6.837,6.837,0,0,0,1.142.47l.2,1.214a1.068,1.068,0,0,0,1.055.893H9.411a1.068,1.068,0,0,0,1.055-.893l.206-1.214a6.856,6.856,0,0,0,1.178-.488l1,.716a1.061,1.061,0,0,0,.622.2h0a1.061,1.061,0,0,0,.755-.314l1.077-1.077a1.07,1.07,0,0,0,.116-1.377l-.716-1a6.807,6.807,0,0,0,.488-1.178l1.214-.2A1.068,1.068,0,0,0,17.3,9.412V7.89A1.055,1.055,0,0,0,16.415,6.835Zm-.083,2.577a.094.094,0,0,1-.08.094l-1.518.253a.485.485,0,0,0-.39.358,5.785,5.785,0,0,1-.629,1.514.489.489,0,0,0,.022.531l.893,1.258a.1.1,0,0,1-.011.123l-1.077,1.077a.092.092,0,0,1-.069.029.089.089,0,0,1-.054-.018l-1.254-.893a.488.488,0,0,0-.531-.022,5.785,5.785,0,0,1-1.514.629.48.48,0,0,0-.358.39L9.5,16.253a.094.094,0,0,1-.094.08H7.889a.094.094,0,0,1-.094-.08l-.253-1.518a.485.485,0,0,0-.358-.39A6.007,6.007,0,0,1,5.7,13.738a.5.5,0,0,0-.246-.065.476.476,0,0,0-.282.09l-1.265.9a.108.108,0,0,1-.054.018.1.1,0,0,1-.069-.029L2.71,13.575a.1.1,0,0,1-.011-.123l.889-1.247a.5.5,0,0,0,.022-.535,5.731,5.731,0,0,1-.636-1.511.5.5,0,0,0-.39-.358l-1.529-.26a.094.094,0,0,1-.08-.094V7.926a.094.094,0,0,1,.08-.094l1.507-.253a.489.489,0,0,0,.394-.361A5.779,5.779,0,0,1,3.574,5.7a.483.483,0,0,0-.025-.528l-.9-1.265a.1.1,0,0,1,.011-.123L3.737,2.708a.092.092,0,0,1,.069-.029A.089.089,0,0,1,3.86,2.7l1.247.889a.5.5,0,0,0,.535.022,5.731,5.731,0,0,1,1.511-.636.5.5,0,0,0,.358-.39l.26-1.529a.094.094,0,0,1,.094-.08H9.385a.094.094,0,0,1,.094.08L9.732,2.56a.489.489,0,0,0,.361.394,5.866,5.866,0,0,1,1.55.636.489.489,0,0,0,.531-.022l1.247-.9a.108.108,0,0,1,.054-.018.1.1,0,0,1,.069.029l1.077,1.077a.1.1,0,0,1,.011.123L13.74,5.136a.488.488,0,0,0-.022.531,5.785,5.785,0,0,1,.629,1.514.48.48,0,0,0,.39.358l1.518.257a.094.094,0,0,1,.08.094V9.412Z" transform="translate(0 -0.001)"/>
      <path id="Path_335" data-name="Path 335" d="M139.833,136a3.733,3.733,0,1,0,3.733,3.733A3.736,3.736,0,0,0,139.833,136Zm0,6.491a2.757,2.757,0,1,1,2.757-2.757A2.759,2.759,0,0,1,139.833,142.492Z" transform="translate(-131.181 -131.086)"/>
    </g>
  </g>
</svg>
