<svg xmlns="http://www.w3.org/2000/svg" width="18" height="18.001" viewBox="0 0 18 18.001">
    <defs>
        <style>
            .cls-1{fill:#1865ff;opacity:.8}
        </style>
    </defs>
    <path id="settings-filter" d="M7.17 19H4a1 1 0 0 1 0-2h3.17a3 3 0 1 1 0 2zm10.66-8H20a1 1 0 0 1 0 2h-2.17a3 3 0 1 1 0-2zM15 13a1 1 0 1 0-1-1 1 1 0 0 0 1 1zm-3-6a1 1 0 0 1 0-2h8a1 1 0 0 1 0 2zm-8 6a1 1 0 0 1 0-2h5a1 1 0 0 1 0 2zm6 6a1 1 0 1 0-1-1 1 1 0 0 0 1 1zM6 9a3 3 0 1 1 3-3 3 3 0 0 1-3 3zm0-2a1 1 0 1 0-1-1 1 1 0 0 0 1 1zm10 12a1 1 0 0 1 0-2h4a1 1 0 0 1 0 2z" class="cls-1" transform="translate(-3 -3)"/>
</svg>
